<svg xmlns="http://www.w3.org/2000/svg" width="784.365" height="282.219" version="1.2" viewBox="0 0 588.273 211.664"><path fill="#0c6826" fill-rule="evenodd" d="M0 0h588.273v211.664H0Zm0 0"/><path fill="#fff" d="M450.516 100.297h74.375c.218 1.758.332 3.55.332 5.367 0 23.719-19.227 42.945-42.946 42.945-1.816 0-3.609-.113-5.367-.332v-21.14h-31.832a42.646 42.646 0 0 1-4.39-10.735h46.957v21.028c13.488-2.266 24.132-12.91 26.394-26.395h-74.375a43.532 43.532 0 0 1-.332-5.37c0-23.716 19.227-42.942 42.945-42.942 1.817 0 3.61.113 5.368.332v21.14h31.832a42.646 42.646 0 0 1 4.39 10.735H476.91V73.902c-13.488 2.262-24.133 12.907-26.394 26.395zm0 0"/><path fill="#fff" fill-rule="evenodd" d="M222.676 102.426c0 1.73-.113 3.398-.344 5.011h-26.605c-.055 7.946 3.89 11.918 11.836 11.918 4.492 0 8.664-.89 12.523-2.675l1.035 8.55c-4.664 1.844-9.785 2.762-15.371 2.762-14.168 0-21.25-7.312-21.25-21.937 0-6.739 1.785-12.207 5.355-16.41 3.57-4.262 8.493-6.395 14.77-6.395 5.988 0 10.566 1.875 13.734 5.617 2.88 3.399 4.317 7.918 4.317 13.559zm-10.969-2.504c.059-2.649-.574-4.723-1.898-6.219-1.325-1.555-3.168-2.332-5.532-2.332-2.3 0-4.199.777-5.699 2.332-1.496 1.555-2.387 3.629-2.676 6.219zM294.887 103.465c0 7.37-2.016 13.27-6.047 17.707-4.203 4.547-9.934 6.82-17.188 6.82-5.703 0-11.027-.691-15.98-2.07V64.078h11.055v18.485c0 3.164-.23 5.957-.692 8.378h.086c2.363-5.07 6.68-7.601 12.957-7.601 5.125 0 9.04 1.754 11.746 5.265 2.707 3.516 4.063 8.465 4.063 14.86zm-11.574 1.12c0-8.062-2.45-12.089-7.344-12.089-2.766 0-5.008 1.379-6.735 4.145-1.671 2.707-2.507 5.93-2.507 9.672v12.093c1.554.52 3.484.778 5.789.778 7.195 0 10.796-4.868 10.796-14.598zM333.926 127.129h-10.453c0-2.992.144-5.41.433-7.254l-.086-.086c-1.039 2.477-2.793 4.461-5.27 5.961-2.476 1.496-5.296 2.242-8.464 2.242-3.86 0-6.879-1.008-9.07-3.02-2.13-2.015-3.196-4.78-3.196-8.292 0-5.008 2.305-8.926 6.91-11.746 4.434-2.649 10.395-3.977 17.88-3.977V98.63c0-4.55-2.794-6.824-8.38-6.824-4.546 0-8.78 1.12-12.695 3.367l-.949-9.242a44.97 44.97 0 0 1 15.371-2.68c6.566 0 11.258 1.328 14.082 3.977 2.418 2.3 3.625 5.957 3.625 10.968v17.88c0 3.8.09 7.488.262 11.054zm-11.317-17.965v-1.035c-9.5 0-14.25 2.273-14.25 6.824 0 3.05 1.7 4.574 5.094 4.574 2.652 0 4.867-1.093 6.652-3.28 1.668-2.017 2.504-4.376 2.504-7.083zM251.957 83.25l-.52 10.887c-.976-.172-1.87-.262-2.675-.262-6.16 0-9.242 5.242-9.242 15.723v17.53h-11.055V84.204h10.45c0 2.707-.259 5.586-.778 8.637h.175c2.645-6.91 7.196-10.106 13.645-9.59zM379.617 127.129h-10.972V99.664c0-4.781-1.754-7.168-5.266-7.168-2.766 0-5.125 1.379-7.086 4.145-1.957 2.707-2.934 5.96-2.934 9.761v20.727h-11.058V84.203h10.453c0 2.992-.203 5.527-.606 7.602l.086.086c2.938-5.758 7.805-8.641 14.598-8.641 8.523 0 12.785 4.582 12.785 13.734zM426.344 127.129h-13.82l-13.301-21.246v21.246h-11.055v-63.05h11.055v38.003l12.523-17.879h13.473L410.19 103.81zM141.23 102.426c0 1.73-.117 3.398-.347 5.011H114.28c-.054 7.946 3.887 11.918 11.836 11.918 4.488 0 8.664-.89 12.524-2.675l1.035 8.55c-4.664 1.844-9.79 2.762-15.375 2.762-14.164 0-21.246-7.312-21.246-21.937 0-6.739 1.785-12.207 5.355-16.41 3.57-4.262 8.492-6.395 14.77-6.395 5.988 0 10.566 1.871 13.73 5.617 2.88 3.399 4.32 7.918 4.32 13.559zm-10.968-2.504c.054-2.649-.578-4.723-1.903-6.219-1.324-1.555-3.164-2.332-5.527-2.332-2.3 0-4.203.777-5.7 2.332-1.495 1.555-2.39 3.629-2.679 6.219zM86.383 131.527c1.094 2.075 1.64 4.032 1.64 5.875 0 4.606-3.367 8.348-10.105 11.23l-5.18-4.234c3.34-2.246 5.008-4.836 5.008-7.773 0-1.613-.488-3.313-1.469-5.098zM99.504 109.07c0 5.586-2.047 10.137-6.133 13.649-4.262 3.57-9.906 5.355-16.93 5.355-4.433 0-8.406-.46-11.918-1.379l.688-10.453c4.035 1.383 8.094 2.074 12.18 2.074 6.738 0 10.105-2.562 10.105-7.687 0-2.938-2.101-5.356-6.305-7.258-7.37-3.223-11.316-5.008-11.832-5.355-4.203-2.934-6.304-7.141-6.304-12.61 0-5.238 1.957-9.472 5.87-12.695 3.973-3.227 9.415-4.84 16.325-4.84 3.05 0 6.566.348 10.54 1.04l-.606 9.843c-3.57-1.035-7.055-1.555-10.454-1.555-3.164 0-5.582.664-7.253 1.989-1.668 1.265-2.504 2.964-2.504 5.097 0 2.762 2.129 5.094 6.39 6.996 7.258 3.34 11.172 5.211 11.746 5.614 4.262 2.937 6.395 6.996 6.395 12.175zm0 0"/><path fill="#fff" fill-rule="evenodd" d="M185.191 127.129h-13.816l-13.305-21.246v21.246h-11.054V64.074h11.054v38.008l12.524-17.879h13.476l-15.03 19.606zm0 0"/></svg>