<svg xmlns="http://www.w3.org/2000/svg" width="37" height="36.997" viewBox="0 0 37 36.997">
    <path fill="#007a3d" d="M-499.809-344.182h32.038a18.651 18.651 0 0 1 .144 2.312 18.5 18.5 0 0 1-18.5 18.5 18.692 18.692 0 0 1-2.311-.144v-9.106h-13.711a18.382 18.382 0 0 1-1.892-4.624h20.228v9.057a13.885 13.885 0 0 0 11.367-11.369h-32.037a18.693 18.693 0 0 1-.144-2.313 18.5 18.5 0 0 1 18.5-18.5 18.67 18.67 0 0 1 2.312.144v9.106h13.711a18.381 18.381 0 0 1 1.892 4.624h-20.227v-9.057a13.885 13.885 0 0 0-11.37 11.37" transform="translate(504.627 360.369)"/>
</svg>
